<?xml version="1.0" encoding="utf-8"?><svg xmlns="http://www.w3.org/2000/svg" xmlns:xlink="http://www.w3.org/1999/xlink"><symbol fill="none" viewBox="0 0 24 24" id="icon-1" xmlns="http://www.w3.org/2000/svg"><g stroke="#4FCEC8" stroke-width="2"><circle cx="12" cy="12" r="10"/><path d="M12 6.5V12l3 3" stroke-linecap="round" stroke-linejoin="round"/></g></symbol><symbol fill="none" viewBox="0 0 24 24" id="icon-2" xmlns="http://www.w3.org/2000/svg"><g clip-path="url(#ba)" stroke="#4FCEC8" stroke-width="2"><path d="m12 7.136 5.6-3.033M12 7.136v6.424m0-6.424L6.4 4.103m11.2 0v6.107L12 13.56m5.6-9.457L12 .98 6.4 4.103M12 13.56l-5.6-3.35V4.103m-.001 12.391c1.867-1.01 5.6-2.929 5.6-2.929m-5.6 2.93v6.422m0-6.423L.8 13.461m11.2.104v6.003l-5.6 3.35m5.6-9.353L6.383 10.2.8 13.46m5.6 9.457-5.6-3.35V13.46"/><path d="M17.6 16.597c1.866-1.012 5.6-2.93 5.6-2.93m-5.6 2.93v6.423m0-6.423L12 13.563m11.2.104v6.003l-5.6 3.35m5.6-9.352L17.582 10.2 12 13.563m5.6 9.457L12 19.67v-6.107"/></g><defs><clipPath id="ba"><path fill="#fff" d="M0 0h24v24H0z"/></clipPath></defs></symbol><symbol fill="none" viewBox="0 0 24 24" id="icon-3" xmlns="http://www.w3.org/2000/svg"><g stroke="#4FCEC8" stroke-width="2"><path d="M20.25 6.375 16.832 13.5M4.125 17.625l4.4-6.75m5.565 3L11.022 10.5"/><circle cx="3" cy="19.304" r="2"/><circle cx="9.485" cy="8.818" r="2"/><circle cx="15.654" cy="15.603" r="2"/><circle cx="21" cy="4.5" r="2"/></g></symbol><symbol fill="none" viewBox="0 0 24 24" id="icon-4" xmlns="http://www.w3.org/2000/svg"><g stroke="#4FCEC8" stroke-width="2"><circle cx="12" cy="12" r="10"/><circle cx="12" cy="9" r="3"/><path d="M18.75 19.227A7.5 7.5 0 0 0 12 15a7.5 7.5 0 0 0-6.75 4.227"/></g></symbol><symbol fill="none" viewBox="0 0 24 24" id="icon-5" xmlns="http://www.w3.org/2000/svg"><circle cx="12" cy="9.573" r="8.007" stroke="#4FCEC8" stroke-width="2"/><path d="M7.196 15.978v5.348c0 .823.894 1.337 1.605.922l2.661-1.552a1.068 1.068 0 0 1 1.076 0l2.66 1.552a1.068 1.068 0 0 0 1.606-.922v-5.348" stroke="#4FCEC8" stroke-width="2"/><path d="M10.209 8.52h1.264v3.792H10.8v1.264h2.91v-1.264h-.55V5.569h-1.264l-1.686 2.95Z" fill="#4FCEC8"/></symbol><symbol fill="none" viewBox="0 0 16 16" id="telegram" xmlns="http://www.w3.org/2000/svg"><path d="m14.629 3.698-2.012 9.618c-.152.679-.548.848-1.11.528l-3.066-2.29-1.48 1.442c-.163.166-.3.305-.616.305l.22-3.165 5.683-5.204c.247-.223-.054-.347-.384-.123L4.839 9.29l-3.024-.959c-.658-.208-.67-.667.137-.986L13.78 2.727c.548-.208 1.027.124.849.971Z" fill="#000"/></symbol></svg>