<svg width="24" height="24" viewBox="0 0 24 24" fill="none" xmlns="http://www.w3.org/2000/svg">
<g id="module 2" clip-path="url(#clip0_3572_5016)">
<path id="Vector 5" d="M11.9992 7.13645C13.866 6.12528 17.5998 4.10295 17.5998 4.10295M11.9992 7.13645V13.5596M11.9992 7.13645L6.39991 4.10295M17.5998 4.10295V10.2097L11.9992 13.5596M17.5998 4.10295L11.9992 0.980255L6.39991 4.10295M11.9992 13.5596L6.39983 10.2097L6.39991 4.10295" stroke="#4FCEC8" stroke-width="2"/>
<path id="Vector 6" d="M6.39905 16.4944C8.26584 15.4832 11.9996 13.5653 11.9996 13.5653M6.39905 16.4944V22.9175M6.39905 16.4944L0.799723 13.4609M11.9996 13.5653V19.5676L6.39905 22.9175M11.9996 13.5653L6.38178 10.1988L0.799723 13.4609M6.39905 22.9175L0.799637 19.5676L0.799723 13.4609" stroke="#4FCEC8" stroke-width="2"/>
<path id="Vector 7" d="M17.5994 16.5966C19.4662 15.5854 23.2 13.6675 23.2 13.6675M17.5994 16.5966V23.0197M17.5994 16.5966L12.0001 13.5631M23.2 13.6675V19.6698L17.5994 23.0197M23.2 13.6675L17.5822 10.2011L12.0001 13.5631M17.5994 23.0197L12 19.6698L12.0001 13.5631" stroke="#4FCEC8" stroke-width="2"/>
</g>
<defs>
<clipPath id="clip0_3572_5016">
<rect width="24" height="24" fill="white"/>
</clipPath>
</defs>
</svg>
