<svg width="20" height="22" viewBox="0 0 20 22" fill="none" xmlns="http://www.w3.org/2000/svg">
<g id="tg 1" clip-path="url(#clip0_3572_5059)">
<path id="Vector" d="M10 20.9102C15.5242 20.9102 20 16.4343 20 10.9102C20 5.38599 15.5242 0.910156 10 0.910156C4.47583 0.910156 0 5.38599 0 10.9102C0 16.4343 4.47583 20.9102 10 20.9102ZM4.57583 10.6935L14.2175 6.97599C14.665 6.81432 15.0558 7.08516 14.9108 7.76182L14.9117 7.76099L13.27 15.4952C13.1483 16.0435 12.8225 16.1768 12.3667 15.9185L9.86667 14.076L8.66083 15.2377C8.5275 15.371 8.415 15.4835 8.15667 15.4835L8.33417 12.9393L12.9675 8.75349C13.1692 8.57599 12.9225 8.47599 12.6567 8.65266L6.93083 12.2577L4.4625 11.4877C3.92667 11.3177 3.915 10.9518 4.57583 10.6935Z" fill="#2A303E"/>
</g>
<defs>
<clipPath id="clip0_3572_5059">
<rect width="20" height="21" fill="white" transform="translate(0 0.5)"/>
</clipPath>
</defs>
</svg>
