<svg width="244" height="32" viewBox="0 0 244 32" fill="none" xmlns="http://www.w3.org/2000/svg">
<path d="M189 11.2888L189.01 11.295L189.02 11.3002L189.033 11.3068C189.105 11.3427 189.232 11.4067 189.372 11.4067C189.618 11.4067 189.858 11.2839 190.005 11.0514L190.01 11.0419L190.015 11.032L190.02 11.0223C190.059 10.9449 190.123 10.8199 190.123 10.6617C190.123 10.4219 190.003 10.1877 189.798 10.042L189.797 10.0414L189.796 10.0407C188.717 9.29049 187.328 8.93612 185.691 8.93612C183.459 8.93612 181.631 9.76795 180.363 11.1389C179.096 12.5077 178.401 14.3999 178.401 16.5037C178.401 18.7825 179.154 20.6781 180.474 22.0049C181.794 23.3318 183.662 24.0713 185.856 24.0713C187.424 24.0713 189.081 23.5261 190.155 22.694L190.156 22.6931L190.157 22.6922C190.316 22.5661 190.431 22.3355 190.431 22.1211C190.431 21.9585 190.367 21.8082 190.281 21.6946L190.277 21.6885L190.272 21.6827C190.115 21.501 189.93 21.3965 189.701 21.3965C189.537 21.3965 189.39 21.4613 189.271 21.5321L189.265 21.5361L189.258 21.5406C188.352 22.1668 187.247 22.5404 185.938 22.5404C184.195 22.5404 182.731 21.9333 181.703 20.8852C180.674 19.8367 180.066 18.3303 180.066 16.5037C180.066 14.7471 180.645 13.2383 181.633 12.171C182.62 11.1053 184.027 10.4671 185.712 10.4671C187.057 10.4671 188.1 10.7258 189 11.2888Z" fill="white"/>
<path fill-rule="evenodd" clip-rule="evenodd" d="M205.069 23.5427L207.024 19.0259H213.623L215.577 23.5414L215.578 23.5427L215.579 23.544C215.7 23.8157 215.972 23.9896 216.288 23.9896C216.505 23.9896 216.701 23.8908 216.841 23.7524C216.98 23.614 217.079 23.4189 217.079 23.2037C217.079 23.1039 217.049 22.9932 217.026 22.9254L217.023 22.9153L211.157 9.58733L211.156 9.58602C211.054 9.35735 210.804 9.03825 210.344 9.03825C209.901 9.03825 209.653 9.36257 209.553 9.58602L203.666 22.9357L203.662 22.9458C203.64 23.0136 203.609 23.1243 203.609 23.2242C203.609 23.6335 203.935 23.9896 204.38 23.9896C204.681 23.9896 204.949 23.8109 205.069 23.544L205.069 23.5427ZM207.68 17.495L210.324 11.4164L212.967 17.495H207.68Z" fill="white"/>
<path d="M197.795 23.9896C198.249 23.9896 198.607 23.645 198.607 23.2037V10.6509H203.184C203.602 10.6509 203.934 10.3212 203.934 9.90586C203.934 9.46181 203.614 9.11996 203.184 9.11996H192.428C192.009 9.11996 191.677 9.44971 191.677 9.86501C191.677 10.3091 191.997 10.6509 192.428 10.6509H197.004V23.2037C197.004 23.6395 197.356 23.9896 197.795 23.9896Z" fill="white"/>
<path fill-rule="evenodd" clip-rule="evenodd" d="M228.364 13.6235C228.364 12.5231 228.071 11.3792 227.235 10.51C226.395 9.63823 225.045 9.07911 223.007 9.07911C222.347 9.07911 221.01 9.09955 220.084 9.11997C219.626 9.12149 219.254 9.4915 219.254 9.94671V23.2037C219.254 23.6395 219.606 23.9896 220.045 23.9896C220.499 23.9896 220.857 23.645 220.857 23.2037V18.1644C221.612 18.2127 222.394 18.2293 223.007 18.2293C224.845 18.2293 226.189 17.6773 227.075 16.8111C227.96 15.9463 228.364 14.7901 228.364 13.6235ZM222.966 16.6983C222.226 16.6983 221.57 16.665 220.857 16.6132V10.6444C221.546 10.6264 222.542 10.61 223.11 10.61C224.43 10.61 225.32 10.9425 225.879 11.4633C226.436 11.9822 226.699 12.7199 226.699 13.6031C226.699 14.5275 226.381 15.292 225.773 15.8281C225.162 16.3668 224.232 16.6983 222.966 16.6983Z" fill="white"/>
<path d="M235.861 23.9896C236.315 23.9896 236.673 23.645 236.673 23.2037V10.6509H241.25C241.668 10.6509 242 10.3212 242 9.90586C242 9.46181 241.68 9.11996 241.25 9.11996H230.493C230.075 9.11996 229.743 9.44971 229.743 9.86501C229.743 10.3091 230.063 10.6509 230.493 10.6509H235.07V23.2037C235.07 23.6395 235.422 23.9896 235.861 23.9896Z" fill="white"/>
<path d="M162.729 2.12059C162.643 1.94807 162.627 1.74915 162.686 1.5657C162.745 1.38224 162.873 1.22855 163.043 1.13696C163.214 1.04537 163.414 1.02302 163.6 1.07461C163.787 1.1262 163.946 1.24771 164.045 1.41357L172.373 15.9973C172.437 16.1083 172.47 16.2338 172.47 16.3615C172.47 16.4892 172.437 16.6147 172.373 16.7257L163.851 31.3159C163.787 31.4272 163.697 31.5208 163.587 31.5882C163.478 31.6556 163.353 31.6946 163.225 31.7015H156.666C156.473 31.6961 156.289 31.6176 156.153 31.4822C156.017 31.3467 155.938 31.1645 155.932 30.9731C155.924 30.8967 155.931 30.8193 155.953 30.7457C155.975 30.6721 156.012 30.6037 156.062 30.5446L164.282 16.3401L156.256 2.47837H151.38L159.233 15.9544C159.297 16.0654 159.33 16.191 159.33 16.3187C159.33 16.4463 159.297 16.5719 159.233 16.6829L150.754 31.273C150.654 31.4435 150.489 31.5674 150.297 31.6177C150.105 31.6679 149.901 31.6402 149.729 31.5408C149.557 31.4414 149.432 31.2783 149.382 31.0874C149.331 30.8966 149.359 30.6936 149.459 30.5231L157.745 16.2972L149.481 2.13558C149.387 2.02124 149.341 1.87563 149.351 1.72851C149.35 1.63262 149.369 1.53751 149.405 1.44874C149.442 1.35998 149.496 1.27933 149.564 1.21152C149.633 1.14371 149.714 1.09009 149.803 1.05379C149.893 1.01748 149.988 0.999222 150.085 1.00008H156.644C156.772 0.998152 156.898 1.03109 157.008 1.09531C157.119 1.15953 157.209 1.25257 157.27 1.3643L165.792 15.9759C165.856 16.0868 165.89 16.2123 165.89 16.3401C165.89 16.4678 165.856 16.5933 165.792 16.7043L157.939 30.1868H162.772L170.841 16.3037L162.729 2.12059Z" fill="white"/>
<path d="M3.81901 19.1317L0.129469 11.226C0.0433482 11.0376 -0.000809728 10.833 1.12407e-05 10.6261C0.00153387 10.4264 0.0456551 10.2292 0.129469 10.0477C0.211311 9.87246 0.320541 9.71121 0.453113 9.56989C0.595083 9.41551 0.772829 9.29785 0.970943 9.2271C1.15515 9.15035 1.35383 9.11381 1.5535 9.11997C1.74541 9.12241 1.93536 9.15868 2.11448 9.2271C2.2972 9.29328 2.46037 9.40375 2.58916 9.54846C2.7398 9.6851 2.85776 9.85347 2.93438 10.0412L5.35092 15.4831L7.76747 10.0477C7.84409 9.8599 7.96204 9.69153 8.11269 9.55489C8.26084 9.42354 8.42815 9.31519 8.60894 9.23352C8.78807 9.16511 8.97801 9.12884 9.16992 9.1264C9.36865 9.13078 9.56536 9.16696 9.75248 9.23352C9.94158 9.30961 10.1111 9.42673 10.2487 9.57632C10.3759 9.71945 10.4847 9.87779 10.5724 10.0477C10.6433 10.2324 10.6798 10.4284 10.6803 10.6261C10.6778 10.8306 10.6413 11.0333 10.5724 11.226L6.90442 19.046L6.66708 19.5602C6.30028 20.3315 5.95506 20.9742 5.63142 21.5312C5.3428 22.0157 5.00284 22.4682 4.61733 22.881C4.28886 23.223 3.892 23.493 3.45221 23.6737C2.97522 23.8551 2.47324 23.9635 1.96345 23.9951C1.94187 23.9951 1.89872 24.0165 1.87715 24.0165H1.76926C1.57148 24.0228 1.37416 23.9938 1.18671 23.9308C1.01083 23.8667 0.844027 23.7803 0.690452 23.6737C0.54777 23.5604 0.436408 23.4129 0.366808 23.2452C0.278594 23.0728 0.234153 22.8815 0.23735 22.6882C0.236529 22.4813 0.280687 22.2767 0.366808 22.0883C0.449055 21.9088 0.55817 21.7426 0.690452 21.5955C0.829268 21.4525 0.998942 21.3426 1.18671 21.2741C1.36957 21.1909 1.56811 21.1471 1.76926 21.1456H1.83399C2.07583 21.1517 2.31685 21.1154 2.54601 21.0385C2.72225 20.9716 2.87826 20.861 2.99911 20.7171C3.14113 20.5694 3.25126 20.3944 3.32276 20.2029C3.43064 20.0101 3.53852 19.753 3.68955 19.4745L3.81901 19.1317Z" fill="white"/>
<path d="M18.6635 9.14144C19.4181 9.14067 20.1657 9.28622 20.8642 9.56993C21.5327 9.85285 22.1406 10.2601 22.6551 10.7697C23.7135 11.8217 24.3106 13.2462 24.3164 14.7333C24.3227 15.4784 24.1682 16.2162 23.8633 16.8971C23.5757 17.5531 23.1657 18.1492 22.6551 18.6539C22.1396 19.157 21.5317 19.557 20.8642 19.8323C20.1688 20.1261 19.4191 20.2721 18.6635 20.2608H15.9233V22.3818C15.9228 22.5795 15.8863 22.7755 15.8154 22.9603C15.6595 23.3151 15.3744 23.5982 15.0171 23.753C14.834 23.8336 14.6345 23.8702 14.4345 23.8601C14.2354 23.8597 14.038 23.8234 13.852 23.753C13.6734 23.6789 13.5119 23.5696 13.3773 23.4316C13.2405 23.2961 13.1307 23.1362 13.0536 22.9603C12.9725 22.7785 12.9356 22.5804 12.9458 22.3818V10.6197C12.9462 10.422 12.9827 10.226 13.0536 10.0413C13.2095 9.68649 13.4947 9.40332 13.852 9.24856C14.035 9.16801 14.2346 9.13131 14.4345 9.14144H18.6635ZM15.9233 12.1409V17.2828H18.7066C19.0494 17.2861 19.3886 17.2128 19.6991 17.0685C20.0084 16.9413 20.2876 16.7516 20.519 16.5115C20.7562 16.2778 20.9465 16.0015 21.08 15.6974C21.2174 15.394 21.2908 15.0659 21.2958 14.7333C21.2991 14.3928 21.2253 14.056 21.08 13.7477C20.9441 13.4449 20.754 13.1691 20.519 12.9336C20.2787 12.6984 20.0019 12.5031 19.6991 12.3551C19.3955 12.2131 19.0638 12.1399 18.7282 12.1409H15.9233Z" fill="white"/>
<path d="M26.3013 10.6904C26.2972 10.4602 26.349 10.2324 26.4523 10.0262C26.5575 9.83225 26.6963 9.6582 26.8623 9.51202C26.993 9.40627 27.1383 9.31969 27.2938 9.25492C27.4503 9.18665 27.6191 9.15022 27.79 9.1478H34.716C34.922 9.15028 35.1261 9.18647 35.3201 9.25492C35.5005 9.33462 35.6678 9.44079 35.8164 9.56987C35.9553 9.70359 36.0654 9.86395 36.14 10.0412C36.2212 10.223 36.2581 10.4211 36.2479 10.6197C36.2454 10.8242 36.209 11.0268 36.14 11.2196C36.0576 11.3925 35.9484 11.5515 35.8164 11.6909C35.6719 11.8269 35.5038 11.9358 35.3201 12.0123C35.1289 12.091 34.9228 12.1275 34.716 12.1194H29.3004V14.8832H32.8173C33.4261 14.8817 34.0285 15.0057 34.5866 15.2474C35.6892 15.7222 36.5601 16.6077 37.012 17.7135C37.4639 18.8193 37.4607 20.0571 37.0031 21.1606C36.7821 21.6939 36.4514 22.1755 36.0322 22.5746C35.623 22.987 35.1303 23.3083 34.5866 23.5173C34.0265 23.7499 33.4244 23.8666 32.8173 23.8601H27.8332C27.6272 23.8576 27.4231 23.8214 27.2291 23.7529C27.0483 23.6713 26.881 23.5629 26.7328 23.4316C26.5818 23.2996 26.4699 23.1292 26.4092 22.9388C26.323 22.7504 26.2789 22.5458 26.2797 22.3389V10.6839L26.3013 10.6904ZM29.3435 17.6962V20.8885H32.8173C33.0257 20.8893 33.2317 20.8454 33.4214 20.7599C33.6105 20.6838 33.7801 20.5667 33.9177 20.4171C34.0641 20.2687 34.1812 20.0943 34.2629 19.9029C34.3484 19.6993 34.3924 19.4808 34.3924 19.2602C34.3924 19.0396 34.3484 18.8211 34.2629 18.6175C34.1863 18.4297 34.0683 18.2613 33.9177 18.1247C33.766 17.998 33.5993 17.8901 33.4214 17.8033C33.2302 17.7246 33.0241 17.6881 32.8173 17.6962H29.3435Z" fill="white"/>
<path d="M49.0212 21.3381H42.872L42.2031 22.9664C42.1265 23.1541 42.0085 23.3225 41.8579 23.4591C41.7143 23.591 41.5456 23.693 41.3616 23.7591C41.1742 23.822 40.9768 23.8511 40.7791 23.8448C40.5707 23.8456 40.3646 23.8017 40.1749 23.7162C39.9858 23.6401 39.8163 23.523 39.6787 23.3734C39.5572 23.2344 39.4622 23.0747 39.3982 22.9021C39.3331 22.724 39.3109 22.5332 39.3334 22.345C39.3556 22.1391 39.4064 21.9372 39.4845 21.7451L44.5765 10.0259C44.6901 9.75241 44.886 9.52044 45.1375 9.36174C45.3823 9.20654 45.6669 9.12472 45.9574 9.12607C46.241 9.12529 46.5186 9.20724 46.7557 9.36174C47.0024 9.5257 47.197 9.75608 47.3167 10.0259L52.4518 21.7666C52.5321 21.9504 52.5831 22.1456 52.6028 22.345C52.6254 22.5332 52.6032 22.724 52.5381 22.9021C52.4745 23.0814 52.3796 23.2482 52.2576 23.3948C52.1279 23.5437 51.9655 23.661 51.783 23.7376C51.6001 23.8209 51.4015 23.8647 51.2004 23.8662C51.0007 23.8723 50.802 23.8358 50.6178 23.7591C50.438 23.6848 50.2706 23.5837 50.1216 23.4591C49.9708 23.3178 49.8466 23.1509 49.7548 22.9664L49.0212 21.3381ZM44.0802 18.3536H47.7698L45.9358 13.9402L44.0802 18.3536Z" fill="white"/>
<path d="M57.7812 15.0391H64.9661V10.6256C64.9633 10.4254 65.0076 10.2273 65.0956 10.0472C65.178 9.87423 65.2872 9.71519 65.4192 9.57582C65.5637 9.43978 65.7318 9.33089 65.9155 9.25445C66.0997 9.1777 66.2984 9.14117 66.498 9.14733C66.6969 9.14977 66.894 9.186 67.0806 9.25445C67.2591 9.32855 67.4206 9.43788 67.5553 9.57582C67.6873 9.71519 67.7965 9.87423 67.8789 10.0472C67.96 10.2289 67.997 10.4271 67.9868 10.6256V22.4091C67.9864 22.6069 67.9498 22.8029 67.8789 22.9876C67.723 23.3424 67.4379 23.6256 67.0806 23.7803C66.8975 23.8609 66.698 23.8976 66.498 23.8874C66.2989 23.887 66.1015 23.8507 65.9155 23.7803C65.7327 23.7141 65.5696 23.6037 65.4408 23.4589C65.304 23.3234 65.1942 23.1635 65.1171 22.9876C65.036 22.8058 64.9991 22.6077 65.0093 22.4091V18.0385H57.8244V22.4091C57.8239 22.6069 57.7874 22.8029 57.7165 22.9876C57.5606 23.3424 57.2755 23.6256 56.9182 23.7803C56.7351 23.8609 56.5356 23.8976 56.3356 23.8874C56.1365 23.887 55.9391 23.8507 55.753 23.7803C55.5745 23.7062 55.413 23.5969 55.2784 23.4589C55.1416 23.3234 55.0318 23.1635 54.9547 22.9876C54.8736 22.8058 54.8367 22.6077 54.8468 22.4091V10.6256C54.8473 10.4279 54.8838 10.2319 54.9547 10.0472C55.1106 9.69238 55.3958 9.40921 55.753 9.25445C55.9361 9.1739 56.1356 9.13721 56.3356 9.14733C56.5347 9.14776 56.7321 9.18406 56.9182 9.25445C57.0961 9.32664 57.2576 9.43376 57.3928 9.56939C57.5296 9.7049 57.6394 9.86481 57.7165 10.0407C57.7976 10.2225 57.8346 10.4206 57.8244 10.6192V15.0327L57.7812 15.0391Z" fill="white"/>
<path fill-rule="evenodd" clip-rule="evenodd" d="M107.018 23.8886H117.051V26.0674C117.047 26.1667 117.064 26.2657 117.102 26.358C117.139 26.4502 117.195 26.5337 117.267 26.6031C117.341 26.6746 117.429 26.7305 117.525 26.7673C117.621 26.8041 117.724 26.8211 117.828 26.8173C117.927 26.8197 118.027 26.8019 118.119 26.765C118.212 26.7282 118.296 26.673 118.367 26.6029C118.438 26.5328 118.493 26.4492 118.53 26.3572C118.567 26.2651 118.585 26.1666 118.583 26.0674V23.0466C118.57 22.9264 118.533 22.8099 118.475 22.7038C118.413 22.61 118.332 22.5298 118.238 22.4681L118.065 22.3824C117.989 22.3559 117.909 22.3415 117.828 22.3396H117.31V9.87047C117.311 9.77463 117.293 9.6795 117.256 9.59102C117.219 9.50254 117.164 9.42263 117.094 9.35628C116.955 9.21895 116.772 9.13537 116.576 9.12061H111.01C110.839 9.11428 110.671 9.16731 110.535 9.27058C110.399 9.36231 110.299 9.49888 110.254 9.65622V9.67765L106.586 22.361H106.22C106.034 22.3734 105.859 22.4491 105.723 22.5752C105.656 22.6392 105.603 22.7156 105.566 22.8002C105.529 22.8848 105.509 22.9758 105.508 23.068V26.1167C105.504 26.216 105.521 26.315 105.558 26.4072C105.596 26.4995 105.652 26.583 105.723 26.6523C105.797 26.7239 105.885 26.7797 105.982 26.8166C106.078 26.8534 106.181 26.8704 106.284 26.8666C106.381 26.8682 106.477 26.85 106.566 26.8131C106.655 26.7763 106.735 26.7215 106.802 26.6523C106.874 26.583 106.93 26.4995 106.967 26.4072C107.004 26.315 107.022 26.216 107.018 26.1167V23.8886ZM115.799 22.3674H108.161L111.592 10.6418H115.799V22.3674Z" fill="white"/>
<path d="M102.638 23.1389C102.643 23.2352 102.626 23.3314 102.589 23.4205C102.551 23.5095 102.494 23.589 102.422 23.6531C102.355 23.7223 102.275 23.7771 102.185 23.8139C102.096 23.8508 102.001 23.869 101.904 23.8674C101.804 23.8711 101.704 23.8539 101.611 23.817C101.519 23.7801 101.434 23.7243 101.365 23.6531C101.295 23.5868 101.24 23.5069 101.203 23.4184C101.166 23.3299 101.147 23.2348 101.149 23.1389V12.041L91.979 23.5246C91.8927 23.6746 91.7548 23.7888 91.5906 23.846L91.569 23.8674H91.5474C91.4785 23.8938 91.4055 23.9083 91.3317 23.9102C91.1703 23.92 91.0104 23.8747 90.8786 23.7817C90.7813 23.7152 90.7026 23.6253 90.6497 23.5204C90.5969 23.4155 90.5717 23.299 90.5765 23.1818V9.91999C90.5728 9.8207 90.5901 9.72174 90.6272 9.62949C90.6644 9.53723 90.7206 9.45374 90.7923 9.38437C90.8608 9.31154 90.9447 9.25458 91.0379 9.21756C91.1311 9.18053 91.2314 9.16434 91.3317 9.17013C91.4315 9.16778 91.5307 9.18557 91.6234 9.22243C91.7161 9.25928 91.8003 9.31443 91.8709 9.38453C91.9415 9.45463 91.9971 9.53824 92.0342 9.63028C92.0713 9.72231 92.0892 9.82087 92.0868 9.91999V20.9965L101.3 9.47007C101.372 9.37871 101.463 9.3044 101.568 9.25252C101.672 9.20064 101.787 9.1725 101.904 9.17013C102.041 9.16969 102.175 9.20676 102.292 9.27725C102.4 9.34819 102.489 9.4437 102.551 9.55577C102.626 9.67018 102.664 9.80489 102.659 9.94141V23.1389H102.638Z" fill="white"/>
<path d="M80.9104 9.6837L80.932 9.64085C80.977 9.53019 81.0516 9.43387 81.1478 9.36233C81.2365 9.29147 81.3395 9.24032 81.4498 9.21236C81.4906 9.19491 81.535 9.18756 81.5793 9.19094H81.7088C81.76 9.18911 81.8111 9.19636 81.8598 9.21236C81.974 9.23813 82.0805 9.29039 82.1705 9.36487C82.2605 9.43934 82.3315 9.53391 82.3776 9.64085L88.1816 22.817C88.2242 22.9075 88.2463 23.0062 88.2463 23.1062C88.2463 23.2061 88.2242 23.3049 88.1816 23.3954C88.1422 23.4894 88.0835 23.5741 88.0092 23.6442C87.9349 23.7143 87.8466 23.7682 87.7501 23.8025C87.566 23.8842 87.3572 23.8919 87.1676 23.8239C87.0739 23.7891 86.9888 23.7348 86.9181 23.6646C86.8474 23.5944 86.7926 23.5099 86.7576 23.4169L81.6656 11.8904L76.6815 23.4169C76.6422 23.5109 76.5835 23.5957 76.5092 23.6658C76.4348 23.7359 76.3465 23.7898 76.25 23.8239C76.053 23.892 75.8374 23.8843 75.6458 23.8025C75.4606 23.7256 75.3133 23.5793 75.2359 23.3954C75.1674 23.2071 75.1751 22.9997 75.2575 22.817L80.9104 9.6837Z" fill="white"/>
<path d="M122.164 23.8883C122.07 23.8852 121.977 23.8627 121.891 23.8221C121.806 23.7816 121.73 23.7238 121.668 23.6526C121.538 23.5045 121.469 23.3134 121.474 23.117V9.89801C121.468 9.79848 121.484 9.69889 121.522 9.60632C121.559 9.51375 121.616 9.43047 121.69 9.36239C121.836 9.22696 122.029 9.15059 122.229 9.14815H130.989C131.086 9.143 131.183 9.15958 131.273 9.19667C131.362 9.23376 131.442 9.2904 131.507 9.36239C131.646 9.50668 131.723 9.69851 131.723 9.89801C131.723 10.0975 131.646 10.2893 131.507 10.4336C131.44 10.5028 131.36 10.5575 131.271 10.5944C131.181 10.6313 131.086 10.6495 130.989 10.6479H122.963V15.5969H129.069C129.169 15.5933 129.268 15.6104 129.361 15.6473C129.454 15.6842 129.538 15.7401 129.608 15.8112C129.678 15.8817 129.733 15.9654 129.771 16.0574C129.808 16.1494 129.826 16.2478 129.824 16.3468C129.829 16.4431 129.812 16.5393 129.775 16.6283C129.738 16.7173 129.681 16.7968 129.608 16.861C129.538 16.9321 129.454 16.988 129.361 17.0249C129.268 17.0618 129.169 17.0789 129.069 17.0752H122.963V22.3671H130.967C131.064 22.362 131.161 22.3785 131.251 22.4156C131.341 22.4527 131.421 22.5094 131.485 22.5814C131.624 22.7256 131.702 22.9175 131.702 23.117C131.702 23.3165 131.624 23.5083 131.485 23.6526C131.419 23.7218 131.338 23.7765 131.249 23.8134C131.16 23.8502 131.064 23.8684 130.967 23.8668H122.164V23.8883Z" fill="white"/>
<path fill-rule="evenodd" clip-rule="evenodd" d="M142.166 9.57039C141.505 9.287 140.792 9.14116 140.073 9.1419V9.12048H135.801C135.701 9.11813 135.601 9.13592 135.509 9.17278C135.416 9.20963 135.332 9.26478 135.261 9.33488C135.191 9.40498 135.135 9.48859 135.098 9.58063C135.061 9.67267 135.043 9.77122 135.045 9.87034V23.1321C135.052 23.3239 135.129 23.5066 135.261 23.6463C135.33 23.7192 135.414 23.7761 135.507 23.8132C135.6 23.8502 135.7 23.8664 135.801 23.8606C135.901 23.8643 136 23.8471 136.093 23.8102C136.186 23.7733 136.27 23.7175 136.34 23.6463C136.412 23.5822 136.469 23.5027 136.507 23.4137C136.544 23.3246 136.561 23.2284 136.556 23.1321V19.7471H140.051C140.777 19.7571 141.496 19.6185 142.166 19.34C142.8 19.071 143.379 18.6858 143.87 18.2045C144.355 17.7245 144.743 17.1574 145.014 16.5334C145.294 15.8839 145.434 15.1832 145.424 14.4766C145.432 13.7633 145.292 13.056 145.014 12.3984C144.751 11.7638 144.362 11.1882 143.87 10.7059C143.379 10.2246 142.8 9.83938 142.166 9.57039ZM136.556 18.2688V10.6416H140.094C140.624 10.6434 141.147 10.7604 141.626 10.9844C142.531 11.4165 143.245 12.1637 143.633 13.084C143.818 13.5253 143.913 13.9986 143.913 14.4766C143.913 14.9547 143.818 15.428 143.633 15.8692C143.452 16.3255 143.181 16.7409 142.834 17.0904C142.497 17.458 142.086 17.7501 141.626 17.9474C141.138 18.1646 140.608 18.2742 140.073 18.2688H136.556Z" fill="white"/>
</svg>
