<svg width="395" height="694" viewBox="0 0 395 694" fill="none" xmlns="http://www.w3.org/2000/svg">
<g filter="url(#filter0_d_3757_4931)">
<path d="M325.227 29.3008C340.179 13.6454 366.583 24.2286 366.583 45.8771V616.288C366.583 637.936 340.179 648.519 325.227 632.864L52.8317 347.659C43.9729 338.383 43.9729 323.782 52.8317 314.506L325.227 29.3008Z" fill="#F1F1F1"/>
</g>
<path d="M144.157 306.62V303.4H160.313V306.62H153.957V323H150.513V306.62H144.157ZM158.985 328.6V310.4H162.205V311.604C162.989 310.764 164.473 310.092 166.097 310.092C169.569 310.092 171.809 312.78 171.809 316.504C171.809 320.34 169.177 323.308 165.145 323.308C164.025 323.308 162.933 323.112 162.205 322.692V328.6H158.985ZM165.089 313.116C163.997 313.116 162.989 313.62 162.205 314.488V319.584C163.073 320.144 163.801 320.312 164.865 320.312C167.105 320.312 168.393 318.688 168.393 316.588C168.393 314.572 167.217 313.116 165.089 313.116ZM177.819 323H174.599V310.4H177.819V318.38L183.699 310.4H186.919V323H183.699V315.02L177.819 323ZM202.662 328.6V323.308H202.494C198.098 323.308 195.662 320.452 195.662 316.7C195.662 313.284 198.07 310.092 202.466 310.092H202.662V303.4H205.882V310.092H206.106C210.446 310.092 212.882 313.004 212.882 316.7C212.882 320.452 210.67 323.308 206.106 323.308H205.882V328.6H202.662ZM206.106 313.116H205.882V320.312H205.994C208.318 320.312 209.438 318.828 209.438 316.7C209.438 314.824 208.374 313.116 206.106 313.116ZM199.106 316.7C199.106 318.8 200.254 320.312 202.578 320.312H202.662V313.116H202.438C200.058 313.116 199.106 314.768 199.106 316.7ZM214.885 316.7C214.885 312.92 217.573 310.092 221.745 310.092C225.917 310.092 228.605 312.92 228.605 316.7C228.605 320.48 225.917 323.308 221.745 323.308C217.573 323.308 214.885 320.48 214.885 316.7ZM218.329 316.7C218.329 318.8 219.785 320.312 221.745 320.312C223.733 320.312 225.189 318.884 225.189 316.7C225.189 314.572 223.705 313.116 221.745 313.116C219.841 313.116 218.329 314.516 218.329 316.7ZM243.32 310.4L238.476 316.392L243.908 323H239.708L234.724 316.644L239.26 310.4H243.32ZM231.392 323V310.4H234.612V323H231.392ZM257.817 310.4L252.861 323C251.013 327.508 249.837 328.6 247.989 328.6C246.841 328.6 246.001 328.152 245.273 327.62L246.309 325.184C246.645 325.38 247.121 325.632 247.625 325.632C248.437 325.632 249.025 324.988 249.557 323.672L249.837 323L244.013 310.4H247.877L250.817 317.288C251.069 317.904 251.237 318.492 251.433 319.108C251.545 318.52 251.657 317.904 251.881 317.26L254.149 310.4H257.817ZM268.803 318.772L270.315 321.124C269.251 322.552 267.347 323.308 265.303 323.308C261.215 323.308 258.471 320.676 258.471 316.7C258.471 313.032 261.159 310.092 264.995 310.092C267.067 310.092 268.887 310.624 270.063 311.8L268.551 314.348C267.599 313.424 266.563 313.116 265.415 313.116C263.623 313.116 261.915 314.488 261.915 316.7C261.915 318.94 263.651 320.312 265.555 320.312C266.927 320.312 267.991 319.668 268.803 318.772ZM281.635 323V318.184H276.119V323H272.899V310.4H276.119V315.16H281.635V310.4H284.855V323H281.635ZM288.431 323V310.4H291.651V313.844H293.219C297.503 313.844 298.763 315.972 298.763 318.212C298.763 320.62 297.251 323 292.967 323H288.431ZM300.555 323V310.4H303.775V323H300.555ZM292.939 316.42H291.651V320.2H292.911C294.647 320.2 295.347 319.472 295.347 318.324C295.347 317.176 294.675 316.42 292.939 316.42ZM319.393 310.4L315.193 316.42L319.673 323H315.753L312.813 318.464L309.761 323H306.037L310.517 316.588L306.317 310.4H310.265L312.925 314.572L315.669 310.4H319.393ZM189.701 360.6V355.308H189.533C185.137 355.308 182.701 352.452 182.701 348.7C182.701 345.284 185.109 342.092 189.505 342.092H189.701V335.4H192.921V342.092H193.145C197.485 342.092 199.921 345.004 199.921 348.7C199.921 352.452 197.709 355.308 193.145 355.308H192.921V360.6H189.701ZM193.145 345.116H192.921V352.312H193.033C195.357 352.312 196.477 350.828 196.477 348.7C196.477 346.824 195.413 345.116 193.145 345.116ZM186.145 348.7C186.145 350.8 187.293 352.312 189.617 352.312H189.701V345.116H189.477C187.097 345.116 186.145 346.768 186.145 348.7ZM201.924 348.7C201.924 344.92 204.612 342.092 208.784 342.092C212.956 342.092 215.644 344.92 215.644 348.7C215.644 352.48 212.956 355.308 208.784 355.308C204.612 355.308 201.924 352.48 201.924 348.7ZM205.368 348.7C205.368 350.8 206.824 352.312 208.784 352.312C210.772 352.312 212.228 350.884 212.228 348.7C212.228 346.572 210.744 345.116 208.784 345.116C206.88 345.116 205.368 346.516 205.368 348.7ZM218.431 360.6V342.4H221.651V343.604C222.435 342.764 223.919 342.092 225.543 342.092C229.015 342.092 231.255 344.78 231.255 348.504C231.255 352.34 228.623 355.308 224.591 355.308C223.471 355.308 222.379 355.112 221.651 354.692V360.6H218.431ZM224.535 345.116C223.443 345.116 222.435 345.62 221.651 346.488V351.584C222.519 352.144 223.247 352.312 224.311 352.312C226.551 352.312 227.839 350.688 227.839 348.588C227.839 346.572 226.663 345.116 224.535 345.116ZM234.044 355V342.4H236.956L241.24 347.664L245.3 342.4H248.128V355H244.908V347.3L241.184 352.004H241.1L237.264 347.3V355H234.044ZM252.688 345.648L251.876 343.296C252.968 342.652 254.676 342.092 256.328 342.092C260.052 342.092 261.368 343.996 261.368 347.328V355H258.568V353.544C257.896 354.496 256.552 355.168 254.844 355.168C252.548 355.168 250.896 353.74 250.896 351.304C250.896 348.532 252.94 347.216 255.488 347.216C256.608 347.216 257.728 347.58 258.344 348.028C258.428 345.928 257.868 344.78 255.992 344.78C254.536 344.78 253.612 345.228 252.688 345.648ZM255.908 352.452C257.252 352.452 257.952 351.864 258.344 351.304V350.016C257.784 349.596 257.056 349.4 256.132 349.4C255.068 349.4 254.116 349.904 254.116 350.968C254.116 351.92 254.9 352.452 255.908 352.452ZM263.353 345.62V342.4H274.833V345.62H270.717V355H267.497V345.62H263.353ZM278.118 345.648L277.306 343.296C278.398 342.652 280.106 342.092 281.758 342.092C285.482 342.092 286.798 343.996 286.798 347.328V355H283.998V353.544C283.326 354.496 281.982 355.168 280.274 355.168C277.978 355.168 276.326 353.74 276.326 351.304C276.326 348.532 278.37 347.216 280.918 347.216C282.038 347.216 283.158 347.58 283.774 348.028C283.858 345.928 283.298 344.78 281.422 344.78C279.966 344.78 279.042 345.228 278.118 345.648ZM281.338 352.452C282.682 352.452 283.382 351.864 283.774 351.304V350.016C283.214 349.596 282.486 349.4 281.562 349.4C280.498 349.4 279.546 349.904 279.546 350.968C279.546 351.92 280.33 352.452 281.338 352.452Z" fill="#2A303E"/>
<defs>
<filter id="filter0_d_3757_4931" x="0.187592" y="0.828857" width="394.395" height="692.507" filterUnits="userSpaceOnUse" color-interpolation-filters="sRGB">
<feFlood flood-opacity="0" result="BackgroundImageFix"/>
<feColorMatrix in="SourceAlpha" type="matrix" values="0 0 0 0 0 0 0 0 0 0 0 0 0 0 0 0 0 0 127 0" result="hardAlpha"/>
<feOffset dx="-9" dy="16"/>
<feGaussianBlur stdDeviation="18.5"/>
<feComposite in2="hardAlpha" operator="out"/>
<feColorMatrix type="matrix" values="0 0 0 0 0 0 0 0 0 0 0 0 0 0 0 0 0 0 0.11 0"/>
<feBlend mode="normal" in2="BackgroundImageFix" result="effect1_dropShadow_3757_4931"/>
<feBlend mode="normal" in="SourceGraphic" in2="effect1_dropShadow_3757_4931" result="shape"/>
</filter>
</defs>
</svg>
