<svg width="168" height="168" viewBox="0 0 168 168" fill="none" xmlns="http://www.w3.org/2000/svg">
<path d="M0 83.5C0 119.665 12.8941 144 40.2093 144C67.3549 144 79.5704 119.665 79.5704 83.5C79.5704 47.3352 67.0155 23 39.87 23C12.5548 23 0 47.3352 0 83.5ZM20.8681 83.5C20.8681 54.9399 26.4669 41.2514 39.87 41.2514C53.4428 41.2514 58.8719 54.264 58.8719 83.5C58.8719 112.736 53.7821 125.918 40.2093 125.918C27.4849 125.918 20.8681 112.398 20.8681 83.5Z" fill="#FFD7BA"/>
<path d="M92.5492 46.6592L102.898 62.7137L117.489 51.729V142.648H137V24.014H122.918L92.5492 46.6592Z" fill="#FFD7BA"/>
</svg>
