<svg width="296" height="208" viewBox="0 0 296 208" fill="none" xmlns="http://www.w3.org/2000/svg">
<path d="M10 104.104C10 165.736 31.888 207.208 78.256 207.208C124.336 207.208 145.072 165.736 145.072 104.104C145.072 42.472 123.76 1 77.68 1C31.312 1 10 42.472 10 104.104ZM45.424 104.104C45.424 55.432 54.928 32.104 77.68 32.104C100.72 32.104 109.936 54.28 109.936 104.104C109.936 153.928 101.296 176.392 78.256 176.392C56.656 176.392 45.424 153.352 45.424 104.104Z" fill="#F7F7F7"/>
<path d="M181.709 41.32L199.277 68.68L224.045 49.96V204.904H257.165V2.72799H233.261L181.709 41.32Z" fill="#F7F7F7"/>
</svg>
