<svg width="168" height="169" viewBox="0 0 168 169" fill="none" xmlns="http://www.w3.org/2000/svg">
<path d="M0 84C0 120.464 12.8369 145 40.0309 145C67.056 145 79.2173 120.464 79.2173 84C79.2173 47.5363 66.7182 23 39.6931 23C12.4991 23 0 47.5363 0 84ZM20.7755 84C20.7755 55.2039 26.3495 41.4022 39.6931 41.4022C53.2056 41.4022 58.6107 54.5223 58.6107 84C58.6107 113.478 53.5435 126.768 40.0309 126.768C27.3629 126.768 20.7755 113.137 20.7755 84Z" fill="#FFD7BA"/>
<path d="M92.681 143.637H167V125.405H117.848C127.138 117.737 162.44 87.5782 162.44 54.1816C162.44 38.3352 151.461 23 128.996 23C110.247 23 96.7348 33.905 93.5255 51.2849L109.741 58.6117C112.274 48.5587 118.355 42.595 126.8 42.595C136.597 42.595 141.833 48.5587 141.833 58.1006C141.833 81.2737 111.936 108.877 92.681 127.961V143.637Z" fill="#FFD7BA"/>
</svg>
