<svg width="168" height="168" viewBox="0 0 168 168" fill="none" xmlns="http://www.w3.org/2000/svg">
<path d="M0 83.5C0 119.364 12.8119 143.497 39.9528 143.497C66.9252 143.497 79.0628 119.364 79.0628 83.5C79.0628 47.6357 66.5881 23.5028 39.6157 23.5028C12.4747 23.5028 0 47.6357 0 83.5ZM20.735 83.5C20.735 55.1773 26.2981 41.6025 39.6157 41.6025C53.1019 41.6025 58.4964 54.5069 58.4964 83.5C58.4964 112.493 53.439 125.565 39.9528 125.565C27.3095 125.565 20.735 112.158 20.735 83.5Z" fill="#FFD7BA"/>
<path d="M127.396 144C149.142 144 166 130.76 166 109.141C166 95.2313 158.077 83.6676 143.411 81.1537V80.651C155.38 75.4557 161.448 66.0706 161.448 52.831C161.448 34.3961 147.794 23 127.564 23C111.381 23 99.0748 29.3684 92.6688 41.2673L103.458 54.8421C109.358 46.295 116.27 42.2729 125.71 42.2729C135.825 42.2729 140.713 48.1385 140.713 56.518C140.713 66.5734 132.116 72.6066 122.507 72.6066H114.921V91.8795H123.35C137.005 91.8795 145.265 97.7451 145.265 108.471C145.265 117.353 138.859 124.727 126.216 124.727C115.933 124.727 106.829 118.861 100.929 110.147L89.9716 124.224C96.209 136.123 109.358 144 127.396 144Z" fill="#FFD7BA"/>
</svg>
