<svg width="296" height="208" viewBox="0 0 296 208" fill="none" xmlns="http://www.w3.org/2000/svg">
<path d="M10 103.968C10 165.6 31.888 207.072 78.256 207.072C124.336 207.072 145.072 165.6 145.072 103.968C145.072 42.336 123.76 0.864006 77.68 0.864006C31.312 0.864006 10 42.336 10 103.968ZM45.424 103.968C45.424 55.296 54.928 31.968 77.68 31.968C100.72 31.968 109.936 54.144 109.936 103.968C109.936 153.792 101.296 176.256 78.256 176.256C56.656 176.256 45.424 153.216 45.424 103.968Z" fill="#F7F7F7"/>
<path d="M227.645 207.936C264.797 207.936 293.597 185.184 293.597 148.032C293.597 124.128 280.061 104.256 255.005 99.936V99.072C275.453 90.144 285.821 74.016 285.821 51.264C285.821 19.584 262.493 0 227.933 0C200.285 0 179.261 10.944 168.317 31.392L186.749 54.72C196.829 40.032 208.637 33.12 224.765 33.12C242.045 33.12 250.397 43.2 250.397 57.6C250.397 74.88 235.709 85.248 219.293 85.248H206.333V118.368H220.733C244.061 118.368 258.173 128.448 258.173 146.88C258.173 162.144 247.229 174.816 225.629 174.816C208.061 174.816 192.509 164.736 182.429 149.76L163.709 173.952C174.365 194.4 196.829 207.936 227.645 207.936Z" fill="#F7F7F7"/>
</svg>
