<svg width="248" height="207" viewBox="0 0 248 207" fill="none" xmlns="http://www.w3.org/2000/svg">
<g id="28">
<path d="M0 103.104C0 164.736 21.888 206.208 68.256 206.208C114.336 206.208 135.072 164.736 135.072 103.104C135.072 41.472 113.76 0 67.68 0C21.312 0 0 41.472 0 103.104ZM35.424 103.104C35.424 54.432 44.928 31.104 67.68 31.104C90.72 31.104 99.936 53.28 99.936 103.104C99.936 152.928 91.296 175.392 68.256 175.392C46.656 175.392 35.424 152.352 35.424 103.104Z" fill="#F7F7F7"/>
<path d="M171.709 40.32L189.277 67.68L214.045 48.96V203.904H247.165V1.72799H223.261L171.709 40.32Z" fill="#F7F7F7"/>
</g>
</svg>
