<svg width="296" height="208" viewBox="0 0 296 208" fill="none" xmlns="http://www.w3.org/2000/svg">
<path d="M10 103.104C10 164.736 31.888 206.208 78.256 206.208C124.336 206.208 145.072 164.736 145.072 103.104C145.072 41.472 123.76 0 77.68 0C31.312 0 10 41.472 10 103.104ZM45.424 103.104C45.424 54.432 54.928 31.104 77.68 31.104C100.72 31.104 109.936 53.28 109.936 103.104C109.936 152.928 101.296 175.392 78.256 175.392C56.656 175.392 45.424 152.352 45.424 103.104Z" fill="#F7F7F7"/>
<path d="M168.029 203.904H294.749V173.088H210.941C226.781 160.128 286.973 109.152 286.973 52.704C286.973 25.92 268.253 0 229.949 0C197.981 0 174.941 18.432 169.469 47.808L197.117 60.192C201.437 43.2 211.805 33.12 226.205 33.12C242.909 33.12 251.837 43.2 251.837 59.328C251.837 98.496 200.861 145.152 168.029 177.408V203.904Z" fill="#F7F7F7"/>
</svg>
